<svg width="3" height="12" viewBox="0 0 3 12" fill="none" xmlns="http://www.w3.org/2000/svg">
<path d="M0.82 1.25C0.82 0.979999 0.92 0.744999 1.12 0.545C1.32 0.344999 1.555 0.244999 1.825 0.244999C2.135 0.245 2.38 0.335 2.56 0.515C2.74 0.695 2.83 0.94 2.83 1.25C2.83 1.51 2.73 1.74 2.53 1.94C2.33 2.15 2.095 2.255 1.825 2.255C1.525 2.255 1.28 2.16 1.09 1.97C0.91 1.78 0.82 1.54 0.82 1.25ZM0.82 5.74707C0.82 5.47707 0.92 5.24207 1.12 5.04207C1.32 4.84207 1.555 4.74207 1.825 4.74207C2.135 4.74207 2.38 4.83207 2.56 5.01207C2.74 5.19207 2.83 5.43707 2.83 5.74707C2.83 6.00707 2.73 6.23707 2.53 6.43707C2.33 6.64707 2.095 6.75207 1.825 6.75207C1.525 6.75207 1.28 6.65707 1.09 6.46707C0.91 6.27707 0.82 6.03707 0.82 5.74707ZM0.82 10.2441C0.82 9.97414 0.92 9.73914 1.12 9.53914C1.32 9.33914 1.555 9.23914 1.825 9.23914C2.135 9.23914 2.38 9.32914 2.56 9.50914C2.74 9.68914 2.83 9.93414 2.83 10.2441C2.83 10.5041 2.73 10.7341 2.53 10.9341C2.33 11.1441 2.095 11.2491 1.825 11.2491C1.525 11.2491 1.28 11.1541 1.09 10.9641C0.909999 10.7741 0.819999 10.5341 0.82 10.2441Z" fill="black"/>
</svg>
