<svg width="312" height="64" viewBox="0 0 312 64" fill="none" xmlns="http://www.w3.org/2000/svg">
<g filter="url(#filter0_d_3006_2832)">
<path d="M241.48 52.7937L239.423 39L250.655 40.1907L241.48 52.7937Z" fill="white" fill-opacity="0.88"/>
<rect x="26" y="5" width="258" height="36" rx="12" fill="white" fill-opacity="0.88"/>
<path d="M55.5682 31.422C54.8122 31.422 54.0982 31.3007 53.4262 31.058C52.7636 30.8247 52.1802 30.47 51.6762 29.994C51.1722 29.518 50.7756 28.9347 50.4862 28.244C50.2062 27.544 50.0662 26.7367 50.0662 25.822C50.0662 24.7673 50.2389 23.8153 50.5842 22.966C50.9389 22.1167 51.4196 21.3887 52.0262 20.782C52.6329 20.1753 53.3282 19.7087 54.1122 19.382C54.9056 19.0553 55.7362 18.892 56.6042 18.892C57.6589 18.892 58.5689 19.1113 59.3342 19.55C60.0996 19.9793 60.6876 20.5813 61.0982 21.356C61.5182 22.1307 61.7282 23.036 61.7282 24.072C61.7282 24.7533 61.6349 25.3553 61.4482 25.878C61.2616 26.3913 61.0142 26.8253 60.7062 27.18C60.3982 27.5253 60.0576 27.7867 59.6842 27.964C59.3202 28.1413 58.9609 28.23 58.6062 28.23C58.1862 28.23 57.8222 28.132 57.5142 27.936C57.2156 27.74 57.0429 27.4413 56.9962 27.04H56.9542C56.7022 27.3387 56.4082 27.5953 56.0722 27.81C55.7362 28.0153 55.3956 28.118 55.0502 28.118C54.5276 28.118 54.0796 27.9267 53.7062 27.544C53.3422 27.152 53.1602 26.6013 53.1602 25.892C53.1602 25.4813 53.2302 25.066 53.3702 24.646C53.5196 24.2167 53.7249 23.82 53.9862 23.456C54.2476 23.092 54.5649 22.8027 54.9382 22.588C55.3116 22.3733 55.7269 22.266 56.1842 22.266C56.4456 22.266 56.6836 22.3313 56.8982 22.462C57.1129 22.5833 57.2902 22.7747 57.4302 23.036H57.4582L57.6402 22.392H58.4802L57.8642 25.514C57.5656 26.746 57.8502 27.362 58.7182 27.362C59.0542 27.362 59.3809 27.236 59.6982 26.984C60.0249 26.7227 60.2956 26.3493 60.5102 25.864C60.7249 25.3787 60.8322 24.8 60.8322 24.128C60.8322 23.4933 60.7389 22.91 60.5522 22.378C60.3656 21.846 60.0902 21.384 59.7262 20.992C59.3622 20.6 58.9096 20.2967 58.3682 20.082C57.8269 19.858 57.2016 19.746 56.4922 19.746C55.7922 19.746 55.1156 19.8907 54.4622 20.18C53.8089 20.46 53.2209 20.866 52.6982 21.398C52.1849 21.9207 51.7742 22.5553 51.4662 23.302C51.1582 24.0393 51.0042 24.8653 51.0042 25.78C51.0042 26.5453 51.1209 27.2267 51.3542 27.824C51.5876 28.412 51.9142 28.9067 52.3342 29.308C52.7542 29.7187 53.2489 30.0313 53.8182 30.246C54.3876 30.4607 55.0036 30.568 55.6662 30.568C56.1422 30.568 56.5949 30.498 57.0242 30.358C57.4629 30.2273 57.8549 30.064 58.2002 29.868L58.5502 30.624C58.1022 30.8947 57.6309 31.0953 57.1362 31.226C56.6416 31.3567 56.1189 31.422 55.5682 31.422ZM55.3022 27.236C55.5169 27.236 55.7456 27.166 55.9882 27.026C56.2309 26.8767 56.4876 26.634 56.7582 26.298L57.1922 23.82C57.0522 23.5773 56.9029 23.4093 56.7442 23.316C56.5856 23.2133 56.3989 23.162 56.1842 23.162C55.8856 23.162 55.6102 23.246 55.3582 23.414C55.1062 23.5727 54.8916 23.7873 54.7142 24.058C54.5462 24.3193 54.4156 24.6087 54.3222 24.926C54.2382 25.234 54.1962 25.5327 54.1962 25.822C54.1962 26.326 54.2989 26.69 54.5042 26.914C54.7189 27.1287 54.9849 27.236 55.3022 27.236ZM63.8183 29V21.398H65.1063V29H63.8183ZM64.4623 19.83C64.2103 19.83 64.0049 19.7553 63.8463 19.606C63.6969 19.4473 63.6223 19.2373 63.6223 18.976C63.6223 18.724 63.6969 18.5233 63.8463 18.374C64.0049 18.2247 64.2103 18.15 64.4623 18.15C64.7143 18.15 64.9196 18.2247 65.0783 18.374C65.2369 18.5233 65.3163 18.724 65.3163 18.976C65.3163 19.2373 65.2369 19.4473 65.0783 19.606C64.9196 19.7553 64.7143 19.83 64.4623 19.83ZM67.6737 29V21.398H68.7237L68.8497 22.504H68.8777C69.2417 22.14 69.6244 21.832 70.0257 21.58C70.4364 21.328 70.9031 21.202 71.4257 21.202C72.2284 21.202 72.8164 21.4587 73.1897 21.972C73.5631 22.476 73.7497 23.2133 73.7497 24.184V29H72.4757V24.352C72.4757 23.6333 72.3591 23.1153 72.1257 22.798C71.9017 22.4807 71.5377 22.322 71.0337 22.322C70.6417 22.322 70.2917 22.42 69.9837 22.616C69.6757 22.812 69.3351 23.1013 68.9617 23.484V29H67.6737ZM78.4447 29.182C77.642 29.182 77.0493 28.93 76.6667 28.426C76.2933 27.922 76.1067 27.1847 76.1067 26.214V21.398H77.3947V26.06C77.3947 26.76 77.5067 27.2733 77.7307 27.6C77.9547 27.9173 78.3187 28.076 78.8227 28.076C79.2147 28.076 79.5647 27.9733 79.8727 27.768C80.1807 27.5627 80.5167 27.236 80.8807 26.788V21.398H82.1547V29H81.0907L80.9927 27.81H80.9507C80.596 28.2207 80.218 28.552 79.8167 28.804C79.4247 29.056 78.9673 29.182 78.4447 29.182ZM85.3806 29.182C85.1286 29.182 84.9092 29.0933 84.7226 28.916C84.5452 28.7293 84.4566 28.496 84.4566 28.216C84.4566 27.9173 84.5452 27.6793 84.7226 27.502C84.9092 27.3247 85.1286 27.236 85.3806 27.236C85.6326 27.236 85.8472 27.3247 86.0246 27.502C86.2112 27.6793 86.3046 27.9173 86.3046 28.216C86.3046 28.496 86.2112 28.7293 86.0246 28.916C85.8472 29.0933 85.6326 29.182 85.3806 29.182ZM90.3691 29.182C89.9491 29.182 89.5711 29.098 89.2351 28.93C88.8991 28.762 88.6331 28.5193 88.4371 28.202C88.2504 27.8753 88.1571 27.4833 88.1571 27.026C88.1571 26.1953 88.5257 25.5607 89.2631 25.122C90.0097 24.674 91.1951 24.3613 92.8191 24.184C92.8191 23.8573 92.7724 23.5493 92.6791 23.26C92.5951 22.9613 92.4411 22.7233 92.2171 22.546C91.9931 22.3593 91.6711 22.266 91.2511 22.266C90.8124 22.266 90.3971 22.3547 90.0051 22.532C89.6224 22.7 89.2771 22.882 88.9691 23.078L88.4791 22.196C88.7124 22.0467 88.9831 21.8973 89.2911 21.748C89.5991 21.5893 89.9351 21.4587 90.2991 21.356C90.6631 21.2533 91.0504 21.202 91.4611 21.202C92.0771 21.202 92.5764 21.3327 92.9591 21.594C93.3511 21.8553 93.6357 22.2193 93.8131 22.686C93.9997 23.1433 94.0931 23.6893 94.0931 24.324V29H93.0431L92.9311 28.09H92.8891C92.5344 28.3887 92.1424 28.6453 91.7131 28.86C91.2931 29.0747 90.8451 29.182 90.3691 29.182ZM90.7331 28.146C91.0971 28.146 91.4424 28.062 91.7691 27.894C92.1051 27.726 92.4551 27.4787 92.8191 27.152V25.038C91.9697 25.1313 91.2931 25.2667 90.7891 25.444C90.2851 25.612 89.9257 25.822 89.7111 26.074C89.4964 26.3167 89.3891 26.606 89.3891 26.942C89.3891 27.3807 89.5197 27.6933 89.7811 27.88C90.0424 28.0573 90.3597 28.146 90.7331 28.146ZM99.5037 29.182C98.8317 29.182 98.2251 29.028 97.6837 28.72C97.1517 28.4027 96.7271 27.95 96.4097 27.362C96.1017 26.7647 95.9477 26.046 95.9477 25.206C95.9477 24.3567 96.1157 23.638 96.4517 23.05C96.7877 22.4527 97.2357 21.9953 97.7957 21.678C98.3557 21.3607 98.9577 21.202 99.6017 21.202C100.096 21.202 100.521 21.2907 100.876 21.468C101.24 21.6453 101.552 21.8553 101.814 22.098L101.17 22.938C100.955 22.742 100.722 22.5833 100.47 22.462C100.227 22.3407 99.9564 22.28 99.6577 22.28C99.2004 22.28 98.7897 22.4013 98.4257 22.644C98.0617 22.8867 97.7771 23.2273 97.5717 23.666C97.3664 24.1047 97.2637 24.618 97.2637 25.206C97.2637 25.7847 97.3617 26.2933 97.5577 26.732C97.7631 27.1707 98.0384 27.5113 98.3837 27.754C98.7384 27.9967 99.1491 28.118 99.6157 28.118C99.9704 28.118 100.297 28.048 100.596 27.908C100.894 27.7587 101.165 27.5767 101.408 27.362L101.968 28.23C101.622 28.5287 101.24 28.762 100.82 28.93C100.4 29.098 99.9611 29.182 99.5037 29.182ZM104.302 29.182C104.05 29.182 103.831 29.0933 103.644 28.916C103.467 28.7293 103.378 28.496 103.378 28.216C103.378 27.9173 103.467 27.6793 103.644 27.502C103.831 27.3247 104.05 27.236 104.302 27.236C104.554 27.236 104.769 27.3247 104.946 27.502C105.133 27.6793 105.226 27.9173 105.226 28.216C105.226 28.496 105.133 28.7293 104.946 28.916C104.769 29.0933 104.554 29.182 104.302 29.182ZM107.541 29V17.856H108.801V25.402H108.857L112.077 21.398H113.505L110.971 24.464L113.841 29H112.455L110.229 25.332L108.801 26.998V29H107.541ZM115.266 29V21.398H116.316L116.442 22.784H116.47C116.731 22.2987 117.048 21.916 117.422 21.636C117.804 21.3467 118.206 21.202 118.626 21.202C118.803 21.202 118.952 21.216 119.074 21.244C119.204 21.2627 119.326 21.3047 119.438 21.37L119.2 22.476C119.069 22.4387 118.952 22.4107 118.85 22.392C118.747 22.364 118.616 22.35 118.458 22.35C118.15 22.35 117.818 22.4853 117.464 22.756C117.109 23.0173 116.806 23.47 116.554 24.114V29H115.266Z" fill="#0D99FF"/>
<path d="M128.15 20.936H130.95V21.888H128.15V20.936ZM128.052 24.114H130.922V25.066H128.052V24.114ZM132.882 17.422H134.002V30.092H132.882V17.422ZM130.334 17.758H131.44V29.448H130.334V17.758ZM127.52 19.032H128.64C128.64 20.1333 128.481 21.1927 128.164 22.21C127.847 23.218 127.338 24.1607 126.638 25.038C125.947 25.906 125.037 26.6807 123.908 27.362L123.222 26.522C124.211 25.9247 125.023 25.2527 125.658 24.506C126.293 23.75 126.759 22.9333 127.058 22.056C127.366 21.1693 127.52 20.2313 127.52 19.242V19.032ZM123.782 19.032H127.968V19.984H123.782V19.032ZM142.877 20.712H145.719V21.678H142.877V20.712ZM145.369 17.422H146.531V24.968H145.369V17.422ZM142.359 25.36C143.236 25.36 143.988 25.4533 144.613 25.64C145.248 25.8267 145.733 26.0973 146.069 26.452C146.405 26.7973 146.573 27.222 146.573 27.726C146.573 28.4727 146.195 29.0513 145.439 29.462C144.692 29.8727 143.666 30.078 142.359 30.078C141.052 30.078 140.021 29.8727 139.265 29.462C138.518 29.0513 138.145 28.4727 138.145 27.726C138.145 27.222 138.313 26.7973 138.649 26.452C138.994 26.0973 139.48 25.8267 140.105 25.64C140.74 25.4533 141.491 25.36 142.359 25.36ZM142.359 26.27C141.724 26.27 141.178 26.326 140.721 26.438C140.264 26.55 139.909 26.7133 139.657 26.928C139.414 27.1427 139.293 27.4087 139.293 27.726C139.293 28.0247 139.414 28.2813 139.657 28.496C139.909 28.7107 140.264 28.8787 140.721 29C141.178 29.112 141.724 29.168 142.359 29.168C143.003 29.168 143.549 29.112 143.997 29C144.454 28.8787 144.804 28.7107 145.047 28.496C145.299 28.2813 145.425 28.0247 145.425 27.726C145.425 27.4087 145.299 27.1427 145.047 26.928C144.804 26.7133 144.454 26.55 143.997 26.438C143.549 26.326 143.003 26.27 142.359 26.27ZM139.335 18.71H140.287V19.732C140.287 20.5067 140.138 21.2347 139.839 21.916C139.55 22.588 139.139 23.1807 138.607 23.694C138.075 24.198 137.459 24.5853 136.759 24.856L136.157 23.932C136.633 23.764 137.062 23.5353 137.445 23.246C137.837 22.9567 138.173 22.6253 138.453 22.252C138.742 21.8787 138.962 21.4773 139.111 21.048C139.26 20.6187 139.335 20.18 139.335 19.732V18.71ZM139.559 18.71H140.511V19.718C140.511 20.2593 140.637 20.7867 140.889 21.3C141.141 21.8133 141.5 22.266 141.967 22.658C142.434 23.05 142.97 23.358 143.577 23.582L142.989 24.506C142.298 24.254 141.696 23.89 141.183 23.414C140.67 22.9287 140.268 22.3687 139.979 21.734C139.699 21.0993 139.559 20.4273 139.559 19.718V18.71ZM136.521 18.346H143.283V19.298H136.521V18.346ZM149.512 18.57H155.336V24.422H149.512V18.57ZM154.202 19.508H150.646V23.484H154.202V19.508ZM157.66 17.422H158.822V26.704H157.66V17.422ZM158.458 21.272H160.684V22.238H158.458V21.272ZM150.94 28.86H159.382V29.812H150.94V28.86ZM150.94 25.822H152.088V29.266H150.94V25.822ZM168.098 18.514H169.05V20.782C169.05 21.482 168.961 22.168 168.784 22.84C168.616 23.512 168.373 24.142 168.056 24.73C167.738 25.318 167.365 25.8407 166.936 26.298C166.506 26.7553 166.04 27.1193 165.536 27.39L164.822 26.452C165.288 26.2187 165.718 25.906 166.11 25.514C166.511 25.1127 166.861 24.6553 167.16 24.142C167.458 23.6287 167.687 23.0873 167.846 22.518C168.014 21.9393 168.098 21.3607 168.098 20.782V18.514ZM168.308 18.514H169.246V20.782C169.246 21.342 169.325 21.8973 169.484 22.448C169.652 22.9987 169.885 23.5167 170.184 24.002C170.482 24.4873 170.823 24.9213 171.206 25.304C171.598 25.6867 172.018 25.99 172.466 26.214L171.752 27.138C171.257 26.886 170.8 26.5407 170.38 26.102C169.969 25.6633 169.605 25.164 169.288 24.604C168.98 24.0347 168.737 23.428 168.56 22.784C168.392 22.1307 168.308 21.4633 168.308 20.782V18.514ZM173.572 17.422H174.734V30.092H173.572V17.422ZM174.468 22.546H176.806V23.54H174.468V22.546ZM180.697 21.72H181.859V24.1H180.697V21.72ZM185.345 21.72H186.493V24.1H185.345V21.72ZM177.883 23.68H189.321V24.618H177.883V23.68ZM183.595 25.584C184.948 25.584 186.007 25.7753 186.773 26.158C187.538 26.5407 187.921 27.0913 187.921 27.81C187.921 28.538 187.538 29.0933 186.773 29.476C186.007 29.868 184.948 30.064 183.595 30.064C182.241 30.064 181.177 29.868 180.403 29.476C179.637 29.0933 179.255 28.538 179.255 27.81C179.255 27.0913 179.637 26.5407 180.403 26.158C181.177 25.7753 182.241 25.584 183.595 25.584ZM183.595 26.48C182.932 26.48 182.363 26.5313 181.887 26.634C181.42 26.7367 181.061 26.8907 180.809 27.096C180.557 27.292 180.431 27.53 180.431 27.81C180.431 28.1087 180.557 28.3607 180.809 28.566C181.061 28.762 181.42 28.9113 181.887 29.014C182.363 29.1167 182.932 29.168 183.595 29.168C184.257 29.168 184.822 29.1167 185.289 29.014C185.765 28.9113 186.129 28.762 186.381 28.566C186.633 28.3607 186.759 28.1087 186.759 27.81C186.759 27.53 186.633 27.292 186.381 27.096C186.129 26.8907 185.765 26.7367 185.289 26.634C184.822 26.5313 184.257 26.48 183.595 26.48ZM183.595 17.66C184.509 17.66 185.298 17.7533 185.961 17.94C186.633 18.1267 187.146 18.3973 187.501 18.752C187.865 19.0973 188.047 19.5173 188.047 20.012C188.047 20.4973 187.865 20.9173 187.501 21.272C187.146 21.6267 186.633 21.8973 185.961 22.084C185.298 22.2613 184.509 22.35 183.595 22.35C182.68 22.35 181.887 22.2613 181.215 22.084C180.552 21.8973 180.039 21.6267 179.675 21.272C179.32 20.9173 179.143 20.4973 179.143 20.012C179.143 19.5173 179.32 19.0973 179.675 18.752C180.039 18.3973 180.552 18.1267 181.215 17.94C181.887 17.7533 182.68 17.66 183.595 17.66ZM183.595 18.57C182.932 18.57 182.353 18.626 181.859 18.738C181.373 18.85 180.995 19.0133 180.725 19.228C180.463 19.4427 180.333 19.704 180.333 20.012C180.333 20.3107 180.463 20.572 180.725 20.796C180.995 21.0107 181.373 21.174 181.859 21.286C182.353 21.398 182.932 21.454 183.595 21.454C184.276 21.454 184.859 21.398 185.345 21.286C185.83 21.174 186.203 21.0107 186.465 20.796C186.726 20.572 186.857 20.3107 186.857 20.012C186.857 19.704 186.726 19.4427 186.465 19.228C186.203 19.0133 185.83 18.85 185.345 18.738C184.859 18.626 184.276 18.57 183.595 18.57ZM199.428 17.38H200.59V24.38H199.428V17.38ZM200.086 20.432H202.466V21.398H200.086V20.432ZM192.54 25.024H200.59V27.852H193.716V29.378H192.582V27.012H199.442V25.892H192.54V25.024ZM192.582 29.056H201.038V29.952H192.582V29.056ZM190.79 18.57H198.266V19.48H190.79V18.57ZM194.528 20.04C195.442 20.04 196.175 20.2267 196.726 20.6C197.276 20.964 197.552 21.468 197.552 22.112C197.552 22.7467 197.276 23.2507 196.726 23.624C196.175 23.9973 195.442 24.184 194.528 24.184C193.604 24.184 192.866 23.9973 192.316 23.624C191.765 23.2507 191.49 22.7467 191.49 22.112C191.49 21.468 191.765 20.964 192.316 20.6C192.866 20.2267 193.604 20.04 194.528 20.04ZM194.528 20.894C193.949 20.894 193.482 21.006 193.128 21.23C192.782 21.4447 192.61 21.7387 192.61 22.112C192.61 22.4853 192.782 22.784 193.128 23.008C193.482 23.2227 193.949 23.33 194.528 23.33C195.116 23.33 195.582 23.2227 195.928 23.008C196.273 22.784 196.446 22.4853 196.446 22.112C196.446 21.7387 196.273 21.4447 195.928 21.23C195.582 21.006 195.116 20.894 194.528 20.894ZM193.954 17.296H195.116V19.2H193.954V17.296ZM211.895 17.87H212.917V18.584C212.917 19.0693 212.824 19.5267 212.637 19.956C212.451 20.376 212.194 20.7633 211.867 21.118C211.55 21.4727 211.177 21.79 210.747 22.07C210.318 22.35 209.851 22.5833 209.347 22.77C208.853 22.9567 208.344 23.092 207.821 23.176L207.345 22.238C207.812 22.1727 208.265 22.0607 208.703 21.902C209.151 21.7433 209.567 21.552 209.949 21.328C210.332 21.0947 210.668 20.8333 210.957 20.544C211.256 20.2547 211.485 19.9467 211.643 19.62C211.811 19.284 211.895 18.9387 211.895 18.584V17.87ZM212.091 17.87H213.099V18.584C213.099 18.9387 213.183 19.2793 213.351 19.606C213.519 19.9327 213.748 20.2407 214.037 20.53C214.336 20.8193 214.677 21.0807 215.059 21.314C215.442 21.5473 215.853 21.7433 216.291 21.902C216.739 22.0607 217.192 22.1727 217.649 22.238L217.187 23.176C216.665 23.092 216.156 22.9567 215.661 22.77C215.167 22.574 214.7 22.336 214.261 22.056C213.832 21.776 213.454 21.4587 213.127 21.104C212.81 20.7493 212.558 20.362 212.371 19.942C212.185 19.5127 212.091 19.06 212.091 18.584V17.87ZM211.895 25.276H213.043V30.092H211.895V25.276ZM206.771 24.548H218.209V25.514H206.771V24.548ZM225.931 25.22H226.841V25.892C226.841 26.4427 226.729 26.984 226.505 27.516C226.281 28.048 225.954 28.524 225.525 28.944C225.105 29.364 224.587 29.686 223.971 29.91L223.397 29.056C223.929 28.86 224.382 28.5893 224.755 28.244C225.138 27.8987 225.427 27.5253 225.623 27.124C225.828 26.7133 225.931 26.3027 225.931 25.892V25.22ZM226.197 25.22H227.051V25.892C227.051 26.3213 227.135 26.746 227.303 27.166C227.471 27.586 227.723 27.9687 228.059 28.314C228.404 28.6593 228.824 28.9347 229.319 29.14L228.843 30.022C228.227 29.7793 227.723 29.4433 227.331 29.014C226.948 28.5847 226.664 28.0993 226.477 27.558C226.29 27.0073 226.197 26.452 226.197 25.892V25.22ZM230.621 25.22H231.475V25.892C231.475 26.3867 231.377 26.9047 231.181 27.446C230.994 27.9873 230.705 28.4913 230.313 28.958C229.93 29.4153 229.44 29.77 228.843 30.022L228.339 29.14C228.843 28.9067 229.263 28.608 229.599 28.244C229.935 27.8707 230.187 27.4787 230.355 27.068C230.532 26.648 230.621 26.256 230.621 25.892V25.22ZM230.845 25.22H231.755V25.892C231.755 26.3307 231.853 26.7553 232.049 27.166C232.254 27.5767 232.544 27.95 232.917 28.286C233.3 28.6127 233.757 28.8693 234.289 29.056L233.715 29.91C233.099 29.686 232.576 29.3733 232.147 28.972C231.718 28.5613 231.391 28.0947 231.167 27.572C230.952 27.04 230.845 26.48 230.845 25.892V25.22ZM231.993 17.436H233.155V24.66H231.993V17.436ZM226.365 18.164C227.009 18.164 227.578 18.29 228.073 18.542C228.568 18.794 228.955 19.144 229.235 19.592C229.524 20.0307 229.669 20.544 229.669 21.132C229.669 21.7107 229.524 22.2193 229.235 22.658C228.955 23.0967 228.568 23.442 228.073 23.694C227.578 23.946 227.009 24.072 226.365 24.072C225.73 24.072 225.161 23.946 224.657 23.694C224.162 23.442 223.77 23.0967 223.481 22.658C223.201 22.2193 223.061 21.7107 223.061 21.132C223.061 20.544 223.201 20.0307 223.481 19.592C223.77 19.144 224.162 18.794 224.657 18.542C225.161 18.29 225.73 18.164 226.365 18.164ZM226.365 19.144C225.954 19.144 225.586 19.228 225.259 19.396C224.932 19.564 224.671 19.7973 224.475 20.096C224.288 20.3853 224.195 20.7307 224.195 21.132C224.195 21.524 224.288 21.8693 224.475 22.168C224.671 22.4573 224.932 22.686 225.259 22.854C225.586 23.022 225.954 23.106 226.365 23.106C226.785 23.106 227.158 23.022 227.485 22.854C227.812 22.686 228.068 22.4573 228.255 22.168C228.442 21.8693 228.535 21.524 228.535 21.132C228.535 20.7307 228.442 20.3853 228.255 20.096C228.068 19.7973 227.812 19.564 227.485 19.396C227.158 19.228 226.785 19.144 226.365 19.144ZM239.034 18.402C239.65 18.402 240.196 18.584 240.672 18.948C241.148 19.3027 241.517 19.8113 241.778 20.474C242.049 21.1367 242.184 21.916 242.184 22.812C242.184 23.708 242.049 24.4873 241.778 25.15C241.517 25.8127 241.148 26.326 240.672 26.69C240.196 27.054 239.65 27.236 239.034 27.236C238.427 27.236 237.881 27.054 237.396 26.69C236.92 26.326 236.547 25.8127 236.276 25.15C236.015 24.4873 235.884 23.708 235.884 22.812C235.884 21.916 236.015 21.1367 236.276 20.474C236.547 19.8113 236.92 19.3027 237.396 18.948C237.881 18.584 238.427 18.402 239.034 18.402ZM239.034 19.438C238.633 19.438 238.278 19.578 237.97 19.858C237.662 20.1287 237.419 20.5207 237.242 21.034C237.074 21.538 236.99 22.1307 236.99 22.812C236.99 23.4933 237.074 24.0907 237.242 24.604C237.419 25.108 237.662 25.5 237.97 25.78C238.278 26.06 238.633 26.2 239.034 26.2C239.445 26.2 239.804 26.06 240.112 25.78C240.42 25.5 240.658 25.108 240.826 24.604C241.003 24.0907 241.092 23.4933 241.092 22.812C241.092 22.1307 241.003 21.538 240.826 21.034C240.658 20.5207 240.42 20.1287 240.112 19.858C239.804 19.578 239.445 19.438 239.034 19.438ZM244.928 17.422H246.076V30.106H244.928V17.422ZM241.806 22.252H245.446V23.19H241.806V22.252ZM251.353 23.946H252.501V27.726H251.353V23.946ZM256.029 23.946H257.191V27.726H256.029V23.946ZM248.539 27.502H260.019V28.468H248.539V27.502ZM254.251 18.22C255.147 18.22 255.94 18.3553 256.631 18.626C257.322 18.8967 257.863 19.2747 258.255 19.76C258.656 20.2453 258.857 20.8193 258.857 21.482C258.857 22.1353 258.656 22.7093 258.255 23.204C257.863 23.6893 257.322 24.0673 256.631 24.338C255.94 24.5993 255.147 24.73 254.251 24.73C253.364 24.73 252.571 24.5993 251.871 24.338C251.18 24.0673 250.639 23.6893 250.247 23.204C249.855 22.7093 249.659 22.1353 249.659 21.482C249.659 20.8193 249.855 20.2453 250.247 19.76C250.639 19.2747 251.18 18.8967 251.871 18.626C252.571 18.3553 253.364 18.22 254.251 18.22ZM254.251 19.144C253.579 19.144 252.982 19.242 252.459 19.438C251.936 19.634 251.526 19.9093 251.227 20.264C250.928 20.6093 250.779 21.0153 250.779 21.482C250.779 21.9487 250.928 22.3593 251.227 22.714C251.526 23.0593 251.936 23.33 252.459 23.526C252.982 23.722 253.579 23.82 254.251 23.82C254.932 23.82 255.534 23.722 256.057 23.526C256.58 23.33 256.99 23.0593 257.289 22.714C257.588 22.3593 257.737 21.9487 257.737 21.482C257.737 21.0153 257.588 20.6093 257.289 20.264C256.99 19.9093 256.58 19.634 256.057 19.438C255.534 19.242 254.932 19.144 254.251 19.144Z" fill="#808080"/>
</g>
<defs>
<filter id="filter0_d_3006_2832" x="-8" y="0" width="328" height="63.7938" filterUnits="userSpaceOnUse" color-interpolation-filters="sRGB">
<feFlood flood-opacity="0" result="BackgroundImageFix"/>
<feColorMatrix in="SourceAlpha" type="matrix" values="0 0 0 0 0 0 0 0 0 0 0 0 0 0 0 0 0 0 127 0" result="hardAlpha"/>
<feOffset dy="3"/>
<feGaussianBlur stdDeviation="4"/>
<feComposite in2="hardAlpha" operator="out"/>
<feColorMatrix type="matrix" values="0 0 0 0 0 0 0 0 0 0 0 0 0 0 0 0 0 0 0.15 0"/>
<feBlend mode="normal" in2="BackgroundImageFix" result="effect1_dropShadow_3006_2832"/>
<feBlend mode="normal" in="SourceGraphic" in2="effect1_dropShadow_3006_2832" result="shape"/>
</filter>
</defs>
</svg>
