<svg width="17" height="16" viewBox="0 0 17 16" fill="none" xmlns="http://www.w3.org/2000/svg">
<path d="M14.2266 3.07333C13.8861 2.73267 13.4818 2.46243 13.0368 2.27805C12.5918 2.09368 12.1149 1.99878 11.6333 1.99878C11.1516 1.99878 10.6747 2.09368 10.2297 2.27805C9.78471 2.46243 9.38042 2.73267 9.03992 3.07333L8.33325 3.78L7.62658 3.07333C6.93879 2.38553 6.00594 1.99914 5.03325 1.99914C4.06056 1.99914 3.12771 2.38553 2.43992 3.07333C1.75212 3.76112 1.36572 4.69397 1.36572 5.66666C1.36572 6.63935 1.75212 7.5722 2.43992 8.26L8.33325 14.1533L14.2266 8.26C14.5672 7.91949 14.8375 7.51521 15.0219 7.07023C15.2062 6.62526 15.3011 6.14832 15.3011 5.66666C15.3011 5.185 15.2062 4.70807 15.0219 4.26309C14.8375 3.81812 14.5672 3.41383 14.2266 3.07333Z" fill="#FF7173"/>
</svg>
