<svg width="12" height="26" viewBox="0 0 12 26" fill="none" xmlns="http://www.w3.org/2000/svg">
<g filter="url(#filter0_d_2052_1634)">
<path d="M4.818 2.288C4.818 1.88933 4.95667 1.56 5.234 1.3C5.52 1.04 5.86233 0.909999 6.261 0.909999C6.66833 0.909999 7.00633 1.04 7.275 1.3C7.55233 1.56 7.691 1.88933 7.691 2.288C7.691 2.68667 7.55233 3.016 7.275 3.276C7.00633 3.536 6.66833 3.666 6.261 3.666C5.86233 3.666 5.52 3.536 5.234 3.276C4.95667 3.016 4.818 2.68667 4.818 2.288ZM4.818 9.44562C4.818 9.04695 4.95667 8.71762 5.234 8.45762C5.52 8.19762 5.86233 8.06762 6.261 8.06762C6.66833 8.06762 7.00633 8.19762 7.275 8.45762C7.55233 8.71762 7.691 9.04695 7.691 9.44562C7.691 9.84428 7.55233 10.1736 7.275 10.4336C7.00633 10.6936 6.66833 10.8236 6.261 10.8236C5.86233 10.8236 5.52 10.6936 5.234 10.4336C4.95667 10.1736 4.818 9.84428 4.818 9.44562ZM4.818 16.6032C4.818 16.2046 4.95667 15.8752 5.234 15.6152C5.52 15.3552 5.86233 15.2252 6.261 15.2252C6.66833 15.2252 7.00633 15.3552 7.275 15.6152C7.55233 15.8752 7.691 16.2046 7.691 16.6032C7.691 17.0019 7.55233 17.3312 7.275 17.5912C7.00633 17.8512 6.66833 17.9812 6.261 17.9812C5.86233 17.9812 5.52 17.8512 5.234 17.5912C4.95667 17.3312 4.818 17.0019 4.818 16.6032Z" fill="#BFBFBF"/>
</g>
<defs>
<filter id="filter0_d_2052_1634" x="0.817993" y="0.910156" width="10.873" height="25.0713" filterUnits="userSpaceOnUse" color-interpolation-filters="sRGB">
<feFlood flood-opacity="0" result="BackgroundImageFix"/>
<feColorMatrix in="SourceAlpha" type="matrix" values="0 0 0 0 0 0 0 0 0 0 0 0 0 0 0 0 0 0 127 0" result="hardAlpha"/>
<feOffset dy="4"/>
<feGaussianBlur stdDeviation="2"/>
<feComposite in2="hardAlpha" operator="out"/>
<feColorMatrix type="matrix" values="0 0 0 0 0 0 0 0 0 0 0 0 0 0 0 0 0 0 0.25 0"/>
<feBlend mode="normal" in2="BackgroundImageFix" result="effect1_dropShadow_2052_1634"/>
<feBlend mode="normal" in="SourceGraphic" in2="effect1_dropShadow_2052_1634" result="shape"/>
</filter>
</defs>
</svg>
